HIERARCHY
ROOT reference
{
  OFFSET 0 0 0
  CHANNELS 6 Xposition Yposition Zposition Zrotation Xrotation Yrotation
  JOINT Hips
  {
    OFFSET 346.547 88.4868 223.89
    CHANNELS 3 Zrotation Xrotation Yrotation
    JOINT RightUpLeg
    {
      OFFSET -9.27468 -1.51611 -0.00175448
      CHANNELS 3 Zrotation Xrotation Yrotation
      JOINT RightLeg
      {
        OFFSET -0.00464511 -41.8738 0.0184652
        CHANNELS 3 Zrotation Xrotation Yrotation
        JOINT RightFoot
        {
          OFFSET -0.626239 -42.3044 -0.171503
          CHANNELS 3 Zrotation Xrotation Yrotation
          End Site
          {
            OFFSET 0 -7.69 17.5
          }
        }
      }
    }
    JOINT LeftUpLeg
    {
      OFFSET 9.30083 -1.68454 -0.0454748
      CHANNELS 3 Zrotation Xrotation Yrotation
      JOINT LeftLeg
      {
        OFFSET 0.0692631 -41.8513 -0.097029
        CHANNELS 3 Zrotation Xrotation Yrotation
        JOINT LeftFoot
        {
          OFFSET 0.520945 -41.523 0.446349
          CHANNELS 3 Zrotation Xrotation Yrotation
          End Site
          {
            OFFSET 0 -7.69 17.5
          }
        }
      }
    }
    JOINT Spine
    {
      OFFSET 0.0770133 14.2992 0.0590021
      CHANNELS 3 Zrotation Xrotation Yrotation
      JOINT Spine1
      {
        OFFSET 0.0471461 9.71665 0.020973
        CHANNELS 3 Zrotation Xrotation Yrotation
        JOINT Spine2
        {
          OFFSET 0.051283 10.117 0.000913966
          CHANNELS 3 Zrotation Xrotation Yrotation
          JOINT Spine3
          {
            OFFSET 0.0447963 9.71088 0.00221408
            CHANNELS 3 Zrotation Xrotation Yrotation
            JOINT Neck
            {
              OFFSET 0.115655 10.3749 0.0448519
              CHANNELS 3 Zrotation Xrotation Yrotation
              JOINT Head
              {
                OFFSET 0.0937003 9.47807 0.0215077
                CHANNELS 3 Zrotation Xrotation Yrotation
                End Site
                {
                  OFFSET 0 15.95 0
                }
              }
            }
            JOINT RightShoulder
            {
              OFFSET -3.17023 6.91072 -0.0050072
              CHANNELS 3 Zrotation Xrotation Yrotation
              JOINT RightArm
              {
                OFFSET -12.7573 0.00694711 0.0313031
                CHANNELS 3 Zrotation Xrotation Yrotation
                JOINT RightForeArm
                {
                  OFFSET -26.5152 -0.0619338 -0.0331286
                  CHANNELS 3 Zrotation Xrotation Yrotation
                  JOINT RightHand
                  {
                    OFFSET -25.9971 0.0398378 -0.0269922
                    CHANNELS 3 Zrotation Xrotation Yrotation
                    JOINT RightHandThumb1
                    {
                      OFFSET -2.48905 0.190105 3.12053
                      CHANNELS 3 Zrotation Xrotation Yrotation
                      JOINT RightHandThumb2
                      {
                        OFFSET -3.68274 0 0
                        CHANNELS 3 Zrotation Xrotation Yrotation
                        JOINT RightHandThumb3
                        {
                          OFFSET -2.55832 0 0
                          CHANNELS 3 Zrotation Xrotation Yrotation
                          End Site
                          {
                            OFFSET -2.194 0 0
                          }
                        }
                      }
                    }
                    JOINT RightInHandIndex
                    {
                      OFFSET -3.22368 0.508421 1.97842
                      CHANNELS 3 Zrotation Xrotation Yrotation
                      JOINT RightHandIndex1
                      {
                        OFFSET -5.21684 -0.091368 0.999158
                        CHANNELS 3 Zrotation Xrotation Yrotation
                        JOINT RightHandIndex2
                        {
                          OFFSET -3.61937 0 0
                          CHANNELS 3 Zrotation Xrotation Yrotation
                          JOINT RightHandIndex3
                          {
                            OFFSET -2.0521 0 0
                            CHANNELS 3 Zrotation Xrotation Yrotation
                            End Site
                            {
                              OFFSET -1.805 0 0
                            }
                          }
                        }
                      }
                    }
                    JOINT RightInHandMiddle
                    {
                      OFFSET -3.38211 0.517263 0.756737
                      CHANNELS 3 Zrotation Xrotation Yrotation
                      JOINT RightHandMiddle1
                      {
                        OFFSET -5.17411 -0.084 0.313895
                        CHANNELS 3 Zrotation Xrotation Yrotation
                        JOINT RightHandMiddle2
                        {
                          OFFSET -3.94947 0 0
                          CHANNELS 3 Zrotation Xrotation Yrotation
                          JOINT RightHandMiddle3
                          {
                            OFFSET -2.47579 0 0
                            CHANNELS 3 Zrotation Xrotation Yrotation
                            End Site
                            {
                              OFFSET -1.975 0 0
                            }
                          }
                        }
                      }
                    }
                    JOINT RightInHandRing
                    {
                      OFFSET -3.36516 0.537895 -0.128947
                      CHANNELS 3 Zrotation Xrotation Yrotation
                      JOINT RightHandRing1
                      {
                        OFFSET -4.63474 -0.022105 -0.478947
                        CHANNELS 3 Zrotation Xrotation Yrotation
                        JOINT RightHandRing2
                        {
                          OFFSET -3.44238 0 0
                          CHANNELS 3 Zrotation Xrotation Yrotation
                          JOINT RightHandRing3
                          {
                            OFFSET -2.3881 0 0
                            CHANNELS 3 Zrotation Xrotation Yrotation
                            End Site
                            {
                              OFFSET -1.857 0 0
                            }
                          }
                        }
                      }
                    }
                    JOINT RightInHandPinky
                    {
                      OFFSET -3.16105 0.469368 -1.20179
                      CHANNELS 3 Zrotation Xrotation Yrotation
                      JOINT RightHandPinky1
                      {
                        OFFSET -4.14105 -0.022105 -1.09053
                        CHANNELS 3 Zrotation Xrotation Yrotation
                        JOINT RightHandPinky2
                        {
                          OFFSET -2.75653 0 0
                          CHANNELS 3 Zrotation Xrotation Yrotation
                          JOINT RightHandPinky3
                          {
                            OFFSET -1.74189 0 0
                            CHANNELS 3 Zrotation Xrotation Yrotation
                            End Site
                            {
                              OFFSET -1.645 0 0
                            }
                          }
                        }
                      }
                    }
                  }
                }
              }
            }
            JOINT LeftShoulder
            {
              OFFSET 3.25178 6.92057 -0.0384945
              CHANNELS 3 Zrotation Xrotation Yrotation
              JOINT LeftArm
              {
                OFFSET 12.8462 -0.0383255 -0.0637898
                CHANNELS 3 Zrotation Xrotation Yrotation
                JOINT LeftForeArm
                {
                  OFFSET 26.4888 -0.0608964 -0.0673835
                  CHANNELS 3 Zrotation Xrotation Yrotation
                  JOINT LeftHand
                  {
                    OFFSET 25.9932 -0.0402352 -0.0274148
                    CHANNELS 3 Zrotation Xrotation Yrotation
                    JOINT LeftHandThumb1
                    {
                      OFFSET 2.48905 0.190105 3.12053
                      CHANNELS 3 Zrotation Xrotation Yrotation
                      JOINT LeftHandThumb2
                      {
                        OFFSET 3.68274 0 0
                        CHANNELS 3 Zrotation Xrotation Yrotation
                        JOINT LeftHandThumb3
                        {
                          OFFSET 2.55832 0 0
                          CHANNELS 3 Zrotation Xrotation Yrotation
                          End Site
                          {
                            OFFSET 2.194 0 0
                          }
                        }
                      }
                    }
                    JOINT LeftInHandIndex
                    {
                      OFFSET 3.22368 0.508421 1.97842
                      CHANNELS 3 Zrotation Xrotation Yrotation
                      JOINT LeftHandIndex1
                      {
                        OFFSET 5.21684 -0.091368 0.999158
                        CHANNELS 3 Zrotation Xrotation Yrotation
                        JOINT LeftHandIndex2
                        {
                          OFFSET 3.61937 0 0
                          CHANNELS 3 Zrotation Xrotation Yrotation
                          JOINT LeftHandIndex3
                          {
                            OFFSET 2.0521 0 0
                            CHANNELS 3 Zrotation Xrotation Yrotation
                            End Site
                            {
                              OFFSET 1.805 0 0
                            }
                          }
                        }
                      }
                    }
                    JOINT LeftInHandMiddle
                    {
                      OFFSET 3.38211 0.517263 0.756737
                      CHANNELS 3 Zrotation Xrotation Yrotation
                      JOINT LeftHandMiddle1
                      {
                        OFFSET 5.17411 -0.084 0.313895
                        CHANNELS 3 Zrotation Xrotation Yrotation
                        JOINT LeftHandMiddle2
                        {
                          OFFSET 3.94947 0 0
                          CHANNELS 3 Zrotation Xrotation Yrotation
                          JOINT LeftHandMiddle3
                          {
                            OFFSET 2.47579 0 0
                            CHANNELS 3 Zrotation Xrotation Yrotation
                            End Site
                            {
                              OFFSET 1.975 0 0
                            }
                          }
                        }
                      }
                    }
                    JOINT LeftInHandRing
                    {
                      OFFSET 3.36516 0.537895 -0.128947
                      CHANNELS 3 Zrotation Xrotation Yrotation
                      JOINT LeftHandRing1
                      {
                        OFFSET 4.63474 -0.022105 -0.478947
                        CHANNELS 3 Zrotation Xrotation Yrotation
                        JOINT LeftHandRing2
                        {
                          OFFSET 3.44238 0 0
                          CHANNELS 3 Zrotation Xrotation Yrotation
                          JOINT LeftHandRing3
                          {
                            OFFSET 2.3881 0 0
                            CHANNELS 3 Zrotation Xrotation Yrotation
                            End Site
                            {
                              OFFSET 1.857 0 0
                            }
                          }
                        }
                      }
                    }
                    JOINT LeftInHandPinky
                    {
                      OFFSET 3.16105 0.469368 -1.20179
                      CHANNELS 3 Zrotation Xrotation Yrotation
                      JOINT LeftHandPinky1
                      {
                        OFFSET 4.14105 -0.022105 -1.09053
                        CHANNELS 3 Zrotation Xrotation Yrotation
                        JOINT LeftHandPinky2
                        {
                          OFFSET 2.75653 0 0
                          CHANNELS 3 Zrotation Xrotation Yrotation
                          JOINT LeftHandPinky3
                          {
                            OFFSET 1.74189 0 0
                            CHANNELS 3 Zrotation Xrotation Yrotation
                            End Site
                            {
                              OFFSET 1.645 0 0
                            }
                          }
                        }
                      }
                    }
                  }
                }
              }
            }
          }
        }
      }
    }
  }
}
MOTION
Frames: 2
Frame Time: 0.00833333
4.200000000000000000e+03 0.000000000000000000e+00 0.000000000000000000e+00 0.000000000000000000e+00 0.000000000000000000e+00 0.000000000000000000e+00 2.083139999999999503e+01 4.238920000000000243e+00 -1.314579999999999984e+02 3.455980000000000274e+01 -3.545250000000000767e+01 3.106380000000000052e+01 -7.055450000000001332e+00 1.835579999999999856e+01 9.270320000000005223e-01 7.264479999999999826e+00 8.517789999999997974e+00 4.799909999999999854e+01 3.313060000000001537e+01 -1.145800000000000196e+01 1.734049999999999869e+01 -2.314689999999999515e+01 4.234000000000000341e+01 2.574170000000000513e+01 5.050919999999997856e+00 -2.311420000000000385e+01 1.674699999999999989e+01 -6.390259999999999607e+00 -2.514490000000000336e+00 -1.461500000000000199e+01 -1.542530000000000179e+00 -9.703920000000001433e-01 -3.598440000000000083e+00 -2.569459999999999411e+00 -1.713430000000000675e+00 -5.822890000000000121e+00 -5.019379999999999953e-01 -1.805909999999999738e-01 2.791459999999999830e+00 -4.374090000000001588e-01 -3.551140000000001073e+00 4.201869999999999550e+01 -8.287890000000000867e+00 9.096659999999999968e+00 2.687669999999999959e+01 4.854709999999998971e+00 4.458980000000001276e+00 1.758570000000000633e+00 3.353010000000000446e+01 -6.558069999999997890e+01 -3.229039999999997690e+00 2.361269999999999669e+01 9.284130000000008209e-01 1.253880000000000052e+02 1.259440000000000204e+01 -2.218849999999999767e+01 1.060520000000000174e+01 2.818400000000000105e+01 1.072940000000000005e+01 1.915919999999999845e+01 1.928820000000000131e-14 6.361109999999998952e-15 -1.000000000000000000e+01 8.116459999999997785e-15 9.541660000000000512e-15 -1.000000000000000000e+01 -4.273869999999999375e-15 4.770830000000001834e-15 7.951390000000001198e-16 1.998179999999999978e+01 8.718970000000000331e-01 2.396399999999999864e+00 2.400000000000000000e+01 4.770830000000000256e-15 2.584200000000002036e-15 2.000000000000000000e+01 1.908330000000000147e-14 1.709550000000000021e-14 -4.273869999999999375e-15 4.770830000000001834e-15 7.951390000000001198e-16 2.000000000000000000e+01 3.180550000000000771e-15 6.758680000000000401e-15 2.400000000000000000e+01 7.951390000000002382e-15 5.963539999999988037e-16 2.000000000000000000e+01 -7.951389999999998240e-16 1.192710000000000087e-14 -4.273869999999999375e-15 4.770830000000001834e-15 7.951390000000001198e-16 1.997479999999999833e+01 -1.025649999999999951e+00 -2.819380000000000219e+00 2.400000000000000000e+01 -8.746530000000002124e-15 1.351739999999999991e-14 2.000000000000000000e+01 -3.975690000000000513e-15 -3.975690000000002091e-15 -4.273869999999999375e-15 4.770830000000001834e-15 7.951390000000001198e-16 1.978150000000000119e+01 -3.009479999999999933e+00 -8.305149999999999366e+00 2.400000000000000000e+01 6.162320000000000311e-15 -6.361109999999999741e-15 2.000000000000000000e+01 1.391490000000000253e-15 1.510760000000000433e-14 6.505950000000000344e+00 -2.138479999999999848e+01 -4.955989999999999895e+01 -2.017529999999999646e+01 2.948910000000000409e+01 -1.135220000000000056e+02 3.620430000000000348e+01 -2.784449999999999648e+00 -3.957760000000000389e+01 -3.492780000000000484e+01 -1.250120000000000431e+01 -1.718639999999999901e+01 -2.818400000000000105e+01 1.072940000000000005e+01 -1.915919999999999845e+01 -1.789439999999997775e-16 -1.272219999999999993e-14 1.000000000000000000e+01 4.351259999999998844e-15 -6.361109999999999741e-15 1.000000000000000000e+01 2.286019999999999624e-15 -5.565969999999999999e-15 4.770830000000000256e-15 -1.998179999999999978e+01 8.718970000000000331e-01 -2.396399999999999864e+00 -2.400000000000000000e+01 -6.361110000000000530e-15 1.590279999999999880e-15 -2.000000000000000000e+01 0.000000000000000000e+00 -1.669789999999999391e-14 2.286019999999999624e-15 -5.565969999999999999e-15 4.770830000000000256e-15 -2.000000000000000000e+01 -7.951389999999999226e-15 -7.156249999999999484e-15 -2.400000000000000000e+01 -3.180550000000000376e-15 7.156249999999999484e-15 -2.000000000000000000e+01 -1.590280000000000471e-15 -3.429040000000000200e-15 2.286019999999999624e-15 -5.565969999999999999e-15 4.770830000000000256e-15 -1.997479999999999833e+01 -1.025649999999999951e+00 2.819380000000000219e+00 -2.400000000000000000e+01 8.746529999999998969e-15 0.000000000000000000e+00 -2.000000000000000000e+01 0.000000000000000000e+00 -1.192709999999999929e-14 2.286019999999999624e-15 -5.565969999999999999e-15 4.770830000000000256e-15 -1.978150000000000119e+01 -3.009479999999999933e+00 8.305149999999999366e+00 -2.400000000000000000e+01 4.770830000000000256e-15 3.180550000000000376e-15 -2.000000000000000000e+01 4.373260000000000385e-15 -3.140799999999998971e-14
4.200000000000000000e+03 0.000000000000000000e+00 0.000000000000000000e+00 0.000000000000000000e+00 0.000000000000000000e+00 0.000000000000000000e+00 2.100629999999999953e+01 4.389730000000000132e+00 -1.311289999999999907e+02 3.447329999999999472e+01 -3.575000000000000000e+01 3.131920000000000215e+01 -6.799840000000000551e+00 1.847680000000000078e+01 5.460849999999997095e-01 7.374179999999999069e+00 8.426130000000000564e+00 4.771649999999999636e+01 3.328930000000000433e+01 -1.178239999999999910e+01 1.731259999999999621e+01 -2.302670000000000528e+01 4.249730000000000274e+01 2.556250000000000000e+01 5.020880000000000010e+00 -2.314489999999999981e+01 1.668569999999999709e+01 -6.265900000000001135e+00 -2.496109999999999829e+00 -1.482070000000000221e+01 -1.511070000000000135e+00 -9.625920000000000032e-01 -3.653059999999999086e+00 -2.517510000000000581e+00 -1.699149999999999938e+00 -5.910560000000000258e+00 -4.989069999999999339e-01 -1.799599999999999811e-01 2.791600000000000303e+00 -4.395470000000000210e-01 -3.503229999999999844e+00 4.209230000000000160e+01 -8.255210000000001713e+00 9.081210000000002225e+00 2.693890000000000029e+01 4.856200000000001182e+00 4.433480000000001198e+00 2.172810000000000130e+00 3.457590000000000430e+01 -6.526019999999999754e+01 -2.496439999999999770e+00 2.371600000000000819e+01 7.758199999999995100e-01 1.252740000000000009e+02 1.276430000000000220e+01 -2.220739999999999625e+01 1.077069999999999972e+01 2.818400000000000105e+01 1.072940000000000005e+01 1.915919999999999845e+01 1.686599999999999599e-14 6.361109999999998952e-15 -1.000000000000000000e+01 9.156680000000000319e-15 1.272220000000000151e-14 -1.000000000000000000e+01 2.832680000000000504e-15 6.361109999999998163e-15 0.000000000000000000e+00 1.998179999999999978e+01 8.718970000000000331e-01 2.396399999999999864e+00 2.400000000000000000e+01 3.180549999999999587e-15 2.584199999999999669e-15 2.000000000000000000e+01 1.272219999999999993e-14 1.630030000000000023e-14 2.832680000000000504e-15 6.361109999999998163e-15 0.000000000000000000e+00 2.000000000000000000e+01 3.975689999999998936e-15 5.168399999999999338e-15 2.400000000000000000e+01 1.033679999999999868e-14 -1.056040000000000491e-16 2.000000000000000000e+01 -2.385420000000000017e-15 1.311979999999999992e-14 2.832680000000000504e-15 6.361109999999998163e-15 0.000000000000000000e+00 1.997479999999999833e+01 -1.025649999999999951e+00 -2.819380000000000219e+00 2.400000000000000000e+01 -1.033680000000000025e-14 1.311979999999999834e-14 2.000000000000000000e+01 -5.168400000000000127e-15 -3.180550000000000771e-15 2.832680000000000504e-15 6.361109999999998163e-15 0.000000000000000000e+00 1.978150000000000119e+01 -3.009479999999999933e+00 -8.305149999999999366e+00 2.400000000000000000e+01 5.466579999999999778e-15 -7.156249999999999484e-15 2.000000000000000000e+01 9.939229999999998411e-16 1.749310000000000020e-14 6.720939999999998804e+00 -2.126379999999999981e+01 -4.918980000000000530e+01 -2.022970000000000113e+01 2.952850000000000819e+01 -1.134869999999999948e+02 3.611279999999999291e+01 -2.554830000000002599e+00 -3.916900000000000404e+01 -3.507300000000000040e+01 -1.251210000000000022e+01 -1.707649999999999935e+01 -2.818400000000000105e+01 1.072940000000000005e+01 -1.915919999999999845e+01 8.750480000000002514e-16 -9.541660000000000512e-15 1.000000000000000000e+01 1.089999999999999805e-14 0.000000000000000000e+00 1.000000000000000000e+01 -1.590279999999999880e-15 -6.361109999999999741e-15 4.770830000000000256e-15 -1.998179999999999978e+01 8.718970000000000331e-01 -2.396399999999999864e+00 -2.400000000000000000e+01 -1.590279999999999091e-15 4.770830000000000256e-15 -2.000000000000000000e+01 0.000000000000000000e+00 -2.047480000000000051e-14 -1.590279999999999880e-15 -6.361109999999999741e-15 4.770830000000000256e-15 -2.000000000000000000e+01 -5.565969999999999999e-15 -9.541660000000000512e-15 -2.400000000000000000e+01 -1.590280000000000274e-15 1.987849999999999356e-15 -2.000000000000000000e+01 0.000000000000000000e+00 -6.261719999999999520e-15 -1.590279999999999880e-15 -6.361109999999999741e-15 4.770830000000000256e-15 -1.997479999999999833e+01 -1.025649999999999951e+00 2.819380000000000219e+00 -2.400000000000000000e+01 8.746529999999998969e-15 7.951390000000015004e-16 -2.000000000000000000e+01 7.951389999999999226e-16 -1.202649999999999771e-14 -1.590279999999999880e-15 -6.361109999999999741e-15 4.770830000000000256e-15 -1.978150000000000119e+01 -3.009479999999999933e+00 8.305149999999999366e+00 -2.400000000000000000e+01 4.373260000000000385e-15 3.180549999999999587e-15 -2.000000000000000000e+01 4.174480000000000732e-15 -3.180549999999999509e-14
